<?xml version="1.0" encoding="UTF-8"?>
<svg id="Layer_1" xmlns="http://www.w3.org/2000/svg" version="1.1" viewBox="-45 -32 100 100" preserveAspectRatio="xMidYMid meet">
  <!-- Generator: Adobe Illustrator 29.0.1, SVG Export Plug-In . SVG Version: 2.1.0 Build 192)  -->
  <defs>
    <style>
      .st0 {
        fill: #E6399B;
      }
    </style>
  </defs>
  <path class="st0" d="M-2.8-28.11L-22.43,17.41c-.53,1.47-1.43,3.35.95,3.35s8.71.06,11.09.01c.34,0,1.09-.14,1.81-1.54L3.36-7.43c.41-.92,1.73-.91,2.13.02l13.27,31.1c.33.77-.23,1.62-1.07,1.62H-22.99c-2.96-.02-3.38,1.7-3.74,2.43-.69,1.41-2.45,6.42-2.96,7.79-.65,1.76-.7,3.1,1.47,3.12.93.01,2.06.04,2.89.04,20.48-.13,40.97.12,61.46.02,2.7,0,2.92-1.76,2.68-3.29h0L11.16-28.04h0s.31.63,0,0c-.89-1.79-2.03-1.67-2.51-1.67,0,0,2.59,0,.6,0H-.5c-.94,0-1.76.55-2.3,1.6"/>
</svg>